<svg xmlns="http://www.w3.org/2000/svg" viewBox="0 0 32 32"><defs><style>.cls-1{fill:none;}.cls-2{fill:#2755c2;}</style></defs><g id="图层_2" data-name="图层 2"><g id="图层_1-2" data-name="图层 1"><rect class="cls-1" width="32" height="32"/><path class="cls-2" d="M8.21,10.4A1.42,1.42,0,0,1,9.61,12h0l-.11.8-.11.8h-8A1.42,1.42,0,0,1,0,12H0l.11-.8.11-.8Z"/><path class="cls-2" d="M6.19,13.6l-.11.8L6,15.2l-.11.8-.11.8-.21,1.6-.11.8-.11.8h0a1.86,1.86,0,0,1-1.83,1.6H1.9L2.12,20l.11-.8.11-.8.22-1.6.11-.8.11-.8.1-.8L3,13.6Z"/><polygon class="cls-2" points="20.58 13.6 20.47 14.4 20.36 15.2 20.25 16 20.14 16.8 19.93 18.4 16.73 18.4 16.95 16.8 17.05 16 17.16 15.2 17.27 14.4 17.38 13.6 20.58 13.6"/><polygon class="cls-2" points="14.18 13.6 14.07 14.4 13.97 15.2 13.86 16 13.75 16.8 13.53 18.4 13.42 19.2 13.31 20 13.1 21.59 9.9 21.59 10.12 20 10.22 19.2 10.33 18.4 10.55 16.8 10.66 16 10.77 15.2 10.88 14.4 10.99 13.6 14.18 13.6"/><path class="cls-2" d="M19.4,10.4A1.42,1.42,0,0,1,20.8,12h0l-.11.8-.11.8H11l.11-.8.1-.8.11-.8.11-.8Z"/><polygon class="cls-2" points="25.38 13.6 25.27 14.4 22.07 14.4 22.18 13.6 25.38 13.6"/><path class="cls-2" d="M30.59,10.4A1.42,1.42,0,0,1,32,12h0l-.11.8-.11.8H22.18l.11-.8.1-.8.11-.8.11-.8Z"/><polygon class="cls-2" points="31.66 14.4 31.55 15.2 31.44 16 31.33 16.8 31.23 17.6 21.63 17.6 21.74 16.8 21.85 16 21.96 15.2 22.07 14.4 31.66 14.4"/><polygon class="cls-2" points="31.23 17.6 31.12 18.4 27.92 18.4 28.03 17.6 31.23 17.6"/><path class="cls-2" d="M31.12,18.4l-.11.8-.11.8,0,.38a1.41,1.41,0,0,1-1.4,1.22H21.09l.22-1.6.11-.8.1-.8Z"/><path class="cls-2" d="M19.93,18.4l-.11.8-.11.8-.05.38a1.42,1.42,0,0,1-1.4,1.22H13.1l.21-1.6.11-.8.11-.8Z"/></g></g></svg>